# xmcd CD database file
#
# Track frame offsets:
#	150
#	14497
#	25380
#	37542
#	45535
#	65385
#	78265
#	92140
#	102445
#	112947
#	127340
#	140385
#	154810
#	165990
#	175910
#	187380
#	199172
#	210015
#	232207
#
# Disc length: 3294 seconds
#
# Revision: 1
# Processed by: cddbd v1.5.2PL0 Copyright (c) Steve Scherf et al.
# Submitted via: CDex 1.70beta2
#
DISCID=fd0cdc13
DTITLE=Fesaci - Pisnicky pro pametniky
DYEAR=1993
DGENRE=Country
TTITLE0=Posledni vecere obeseni v Zapadni Virginii
TTITLE1=Lora
TTITLE2=Jackson
TTITLE3=Tanecek
TTITLE4=Kamarade, pust ten kolotoc
TTITLE5=Cim jezdi laska
TTITLE6=Slida
TTITLE7=Darek vanocni
TTITLE8=Absolutni slepice
TTITLE9=Dialog 2000
TTITLE10=Vis, co ti slusi
TTITLE11=Malerova pisen
TTITLE12=Strasidelny Vvak
TTITLE13=Podzimni zprava
TTITLE14=Prvni honorar
TTITLE15=Doktore, pomozte
TTITLE16=Nadrazi
TTITLE17=Svita ve tvych tvarich
TTITLE18=Davej vinu dalkam
EXTD=YEAR: 1993
EXTT0=
EXTT1=
EXTT2=
EXTT3=
EXTT4=
EXTT5=
EXTT6=
EXTT7=
EXTT8=
EXTT9=
EXTT10=
EXTT11=
EXTT12=
EXTT13=
EXTT14=
EXTT15=
EXTT16=
EXTT17=
EXTT18=
PLAYORDER=
